<svg xmlns="http://www.w3.org/2000/svg" version="1.1" xmlns:xlink="http://www.w3.org/1999/xlink" xmlns:svgjs="http://svgjs.dev/svgjs" width="1000" height="1029" viewBox="0 0 1000 1029"><g transform="matrix(1,0,0,1,-0.8937495845113403,0.4165991902833639)"><svg viewBox="0 0 240 247" data-background-color="#ffffff" preserveAspectRatio="xMidYMid meet" height="1029" width="1000" xmlns="http://www.w3.org/2000/svg" xmlns:xlink="http://www.w3.org/1999/xlink"><g id="tight-bounds" transform="matrix(1,0,0,1,0.21450009971729855,-0.09999999999999432)"><svg viewBox="0 0 239.57050909090907 247.2" height="247.2" width="239.57050909090907"><g><svg></svg></g><g><svg viewBox="0 0 239.57050909090907 247.2" height="247.2" width="239.57050909090907"><g transform="matrix(1,0,0,1,0,47.215199999999996)"><svg viewBox="0 0 239.57050909090907 152.7696" height="152.7696" width="239.57050909090907"><g><svg viewBox="0 0 239.57050909090907 152.7696" height="152.7696" width="239.57050909090907"><g><svg viewBox="0 0 239.57050909090907 152.7696" height="152.7696" width="239.57050909090907"><g><svg viewBox="0 0 239.57050909090907 152.7696" height="152.7696" width="239.57050909090907"><g id="textblocktransform"><svg viewBox="0 0 239.57050909090907 152.7696" height="152.7696" width="239.57050909090907" id="textblock"><g><svg viewBox="0 0 239.57050909090907 152.7696" height="152.7696" width="239.57050909090907"><g transform="matrix(1,0,0,1,0,0)"><svg width="239.57050909090907" viewBox="1.9500000476837158 -36.040000915527344 57.279998779296875 36.53000259399414" height="152.7696" data-palette-color="#0dcaf0"><path d="M14.6-15.84L14.6-15.84Q8.57-17.58 5.82-20.1 3.08-22.63 3.08-26.34L3.08-26.34Q3.08-30.54 6.43-33.29 9.79-36.04 15.16-36.04L15.16-36.04Q18.82-36.04 21.69-34.62 24.56-33.2 26.14-30.71 27.71-28.22 27.71-25.27L27.71-25.27 23-25.27Q23-28.49 20.95-30.33 18.9-32.18 15.16-32.18L15.16-32.18Q11.69-32.18 9.75-30.65 7.81-29.13 7.81-26.42L7.81-26.42Q7.81-24.24 9.66-22.74 11.5-21.24 15.93-20 20.36-18.75 22.86-17.25 25.37-15.75 26.57-13.75 27.78-11.74 27.78-9.03L27.78-9.03Q27.78-4.71 24.41-2.11 21.04 0.49 15.41 0.49L15.41 0.49Q11.74 0.49 8.57-0.92 5.4-2.32 3.67-4.76 1.95-7.2 1.95-10.3L1.95-10.3 6.67-10.3Q6.67-7.08 9.05-5.21 11.43-3.34 15.41-3.34L15.41-3.34Q19.12-3.34 21.09-4.86 23.07-6.37 23.07-8.98 23.07-11.6 21.24-13.02 19.41-14.45 14.6-15.84ZM35.4-35.55L44.63-17.7 53.9-35.55 59.23-35.55 46.97-13.26 46.97 0 42.28 0 42.28-13.26 30.03-35.55 35.4-35.55Z" opacity="1" transform="matrix(1,0,0,1,0,0)" fill="#0dcaf0" class="wordmark-text-0" data-fill-palette-color="primary" id="text-0"></path></svg></g></svg></g></svg></g></svg></g><g></g></svg></g></svg></g></svg></g><path d="M0 41.215L0 1 239.571 1 239.571 41.215 225.794 41.215 225.794 14.777 13.777 14.777 13.777 41.215 0 41.215M0 205.985L0 246.2 239.571 246.2 239.571 205.985 225.794 205.985 225.794 232.423 13.777 232.423 13.777 205.985 0 205.985" fill="#0dcaf0" stroke="transparent" data-fill-palette-color="primary"></path></svg></g><defs></defs></svg><rect width="239.57050909090907" height="247.2" fill="none" stroke="none" visibility="hidden"></rect></g></svg></g></svg>