<?xml version="1.0" encoding="utf-8"?>

<!-- Uploaded to: SVG Repo, www.svgrepo.com, Generator: SVG Repo Mixer Tools -->
<svg version="1.1" id="Icons" xmlns="http://www.w3.org/2000/svg" xmlns:xlink="http://www.w3.org/1999/xlink" 
	 viewBox="0 0 32 32" xml:space="preserve">
<style type="text/css">
	.st0{fill:none;stroke:#000000;stroke-width:2;stroke-linecap:round;stroke-linejoin:round;stroke-miterlimit:10;}
</style>
<path d="M31,16h-2v-2c0-0.6-0.4-1-1-1h-2v-2c0-0.6-0.4-1-1-1h-2V8h2c0.6,0,1-0.4,1-1V4c0-0.6-0.4-1-1-1h-3c-0.6,0-1,0.4-1,1v2h-2
	c-0.6,0-1,0.4-1,1v3h-4V7c0-0.6-0.4-1-1-1h-2V4c0-0.6-0.4-1-1-1H7C6.4,3,6,3.4,6,4v3c0,0.6,0.4,1,1,1h2v2H7c-0.6,0-1,0.4-1,1v2H4
	c-0.6,0-1,0.4-1,1v2H1c-0.6,0-1,0.4-1,1v9c0,0.6,0.4,1,1,1h3c0.6,0,1-0.4,1-1v-5h1v5c0,0.6,0.4,1,1,1h2v2c0,0.6,0.4,1,1,1h4
	c0.6,0,1-0.4,1-1v-3c0-0.6-0.4-1-1-1h-3v-1h10v1h-3c-0.6,0-1,0.4-1,1v3c0,0.6,0.4,1,1,1h4c0.6,0,1-0.4,1-1v-2h2c0.6,0,1-0.4,1-1v-5
	h1v5c0,0.6,0.4,1,1,1h3c0.6,0,1-0.4,1-1v-9C32,16.4,31.6,16,31,16z M14,19c0,0.6-0.4,1-1,1h-3c-0.6,0-1-0.4-1-1v-3c0-0.6,0.4-1,1-1
	h3c0.6,0,1,0.4,1,1V19z M23,19c0,0.6-0.4,1-1,1h-3c-0.6,0-1-0.4-1-1v-3c0-0.6,0.4-1,1-1h3c0.6,0,1,0.4,1,1V19z"/>
</svg>